<svg style="position:absolute;width:0;height:0" xmlns="http://www.w3.org/2000/svg" overflow="hidden"><defs><symbol id="icon-bookmark" viewBox="0 0 20 20"><path class="path1" d="M14 2v17l-4-4-4 4V2c0-.553.585-1.02 1-1h6c.689-.02 1 .447 1 1z"/></symbol><symbol id="icon-chevron-down" viewBox="0 0 20 20"><path class="path1" d="M4.516 7.548c.436-.446 1.043-.481 1.576 0L10 11.295l3.908-3.747c.533-.481 1.141-.446 1.574 0 .436.445.408 1.197 0 1.615-.406.418-4.695 4.502-4.695 4.502a1.095 1.095 0 0 1-1.576 0S4.924 9.581 4.516 9.163s-.436-1.17 0-1.615z"/></symbol><symbol id="icon-chevron-left" viewBox="0 0 20 20"><path class="path1" d="M12.452 4.516c.446.436.481 1.043 0 1.576L8.705 10l3.747 3.908c.481.533.446 1.141 0 1.574-.445.436-1.197.408-1.615 0-.418-.406-4.502-4.695-4.502-4.695a1.095 1.095 0 0 1 0-1.576s4.084-4.287 4.502-4.695 1.17-.436 1.615 0z"/></symbol><symbol id="icon-chevron-right" viewBox="0 0 20 20"><path class="path1" d="M9.163 4.516c.418.408 4.502 4.695 4.502 4.695a1.095 1.095 0 0 1 0 1.576s-4.084 4.289-4.502 4.695c-.418.408-1.17.436-1.615 0-.446-.434-.481-1.041 0-1.574L11.295 10 7.548 6.092c-.481-.533-.446-1.141 0-1.576s1.197-.409 1.615 0z"/></symbol><symbol id="icon-chevron-thin-down" viewBox="0 0 20 20"><path class="path1" d="M17.418 6.109c.272-.268.709-.268.979 0s.271.701 0 .969l-7.908 7.83a.697.697 0 0 1-.979 0l-7.908-7.83c-.27-.268-.27-.701 0-.969s.709-.268.979 0L10 13.25l7.418-7.141z"/></symbol><symbol id="icon-chevron-thin-left" viewBox="0 0 20 20"><path class="path1" d="M13.891 17.418c.268.272.268.709 0 .979s-.701.271-.969 0l-7.83-7.908a.697.697 0 0 1 0-.979l7.83-7.908c.268-.27.701-.27.969 0s.268.709 0 .979L6.75 10l7.141 7.418z"/></symbol><symbol id="icon-chevron-thin-right" viewBox="0 0 20 20"><path class="path1" d="M13.25 10L6.109 2.58a.697.697 0 0 1 0-.979.68.68 0 0 1 .969 0l7.83 7.908a.697.697 0 0 1 0 .979l-7.83 7.908c-.268.271-.701.27-.969 0s-.268-.707 0-.979L13.25 10z"/></symbol><symbol id="icon-chevron-thin-up" viewBox="0 0 20 20"><path class="path1" d="M2.582 13.891c-.272.268-.709.268-.979 0s-.271-.701 0-.969l7.908-7.83a.697.697 0 0 1 .979 0l7.908 7.83c.27.268.27.701 0 .969s-.709.268-.978 0L10 6.75l-7.418 7.141z"/></symbol><symbol id="icon-chevron-up" viewBox="0 0 20 20"><path class="path1" d="M15.484 12.452c-.436.446-1.043.481-1.576 0L10 8.705l-3.908 3.747c-.533.481-1.141.446-1.574 0-.436-.445-.408-1.197 0-1.615.406-.418 4.695-4.502 4.695-4.502a1.095 1.095 0 0 1 1.576 0s4.287 4.084 4.695 4.502.436 1.17 0 1.615z"/></symbol><symbol id="icon-cloud" viewBox="0 0 20 20"><path class="path1" d="M20 11.32c0 2.584-2.144 4.68-4.787 4.68H3.617C1.619 16 0 14.416 0 12.463c0-1.951 1.619-3.535 3.617-3.535.146 0 .288.012.429.027a5.076 5.076 0 0 1-.057-.756C3.989 5.328 6.37 3 9.309 3c2.407 0 4.439 1.562 5.096 3.707a5 5 0 0 1 .809-.066C17.856 6.641 20 8.734 20 11.32z"/></symbol><symbol id="icon-aircraft-take-off" viewBox="0 0 20 20"><path class="path1" d="M19.87 6.453c.119.257.127 1.29-4.884 3.642l-4.913 2.306c-1.71.803-4.191 1.859-5.285 2.151-.766.204-1.497-.316-1.497-.316S1.085 12.261.499 11.817c-.585-.444-.535-.67.215-.91.467-.149 3.13.493 4.265.78A91.697 91.697 0 0 1 8.12 9.889c-1.396-1.033-4.008-2.962-4.841-3.55-.799-.565.01-.768.01-.768.368-.099 1.162-.228 1.562-.144 2.721.569 7.263 2.071 7.611 2.186a90.641 90.641 0 0 1 2.922-1.465c2.075-.974 4.327-.037 4.486.305z"/></symbol><symbol id="icon-bell" viewBox="0 0 20 20"><path class="path1" d="M14.65 8.512c-2.28-4.907-3.466-6.771-7.191-6.693-1.327.027-1.009-.962-2.021-.587-1.01.375-.143.924-1.177 1.773-2.902 2.383-2.635 4.587-1.289 9.84.567 2.213-1.367 2.321-.602 4.465.559 1.564 4.679 2.219 9.025.607s7.086-4.814 6.527-6.378c-.765-2.145-2.311-.961-3.272-3.027zm-3.726 8.083c-3.882 1.44-7.072.594-7.207.217-.232-.65 1.253-2.816 5.691-4.463s6.915-1.036 7.174-.311c.153.429-1.775 3.116-5.658 4.557zm-1.248-3.494c-2.029.753-3.439 1.614-4.353 2.389.643.584 1.847.726 3.046.281 1.527-.565 2.466-1.866 2.095-2.904l-.016-.036c-.251.082-.508.171-.772.27z"/></symbol><symbol id="icon-calendar" viewBox="0 0 20 20"><path class="path1" d="M17 3h-1v2h-3V3H7v2H4V3H3c-1.101 0-2 .9-2 2v12c0 1.1.899 2 2 2h14c1.1 0 2-.9 2-2V5c0-1.1-.9-2-2-2zm0 14H3V9h14v8zM6.5 1h-2v3.5h2V1zm9 0h-2v3.5h2V1z"/></symbol><symbol id="icon-camera" viewBox="0 0 20 20"><path class="path1" d="M10 8a3 3 0 1 0 0 6 3 3 0 0 0 0-6zm8-3h-2.4a.888.888 0 0 1-.789-.57l-.621-1.861A.89.89 0 0 0 13.4 2H6.6c-.33 0-.686.256-.789.568L5.189 4.43A.889.889 0 0 1 4.4 5H2C.9 5 0 5.9 0 7v9c0 1.1.9 2 2 2h16c1.1 0 2-.9 2-2V7c0-1.1-.9-2-2-2zm-8 11a5 5 0 0 1-5-5 5 5 0 1 1 10 0 5 5 0 0 1-5 5zm7.5-7.8a.7.7 0 1 1 0-1.4.7.7 0 0 1 0 1.4z"/></symbol><symbol id="icon-chat" viewBox="0 0 20 20"><path class="path1" d="M5.8 12.2V6H2C.9 6 0 6.9 0 8v6c0 1.1.9 2 2 2h1v3l3-3h5c1.1 0 2-.9 2-2v-1.82a.943.943 0 0 1-.2.021l-7-.001zM18 1H9c-1.1 0-2 .9-2 2v8h7l3 3v-3h1c1.1 0 2-.899 2-2V3c0-1.1-.9-2-2-2z"/></symbol><symbol id="icon-cog" viewBox="0 0 20 20"><path class="path1" d="M16.783 10c0-1.049.646-1.875 1.617-2.443a8.932 8.932 0 0 0-.692-1.672c-1.089.285-1.97-.141-2.711-.883-.741-.74-.968-1.621-.683-2.711a8.732 8.732 0 0 0-1.672-.691c-.568.97-1.595 1.615-2.642 1.615-1.048 0-2.074-.645-2.643-1.615a8.697 8.697 0 0 0-1.671.691c.285 1.09.059 1.971-.684 2.711-.74.742-1.621 1.168-2.711.883A8.797 8.797 0 0 0 1.6 7.557c.97.568 1.615 1.394 1.615 2.443 0 1.047-.645 2.074-1.615 2.643a8.89 8.89 0 0 0 .691 1.672c1.09-.285 1.971-.059 2.711.682s.969 1.623.684 2.711a8.841 8.841 0 0 0 1.672.693c.568-.973 1.595-1.617 2.643-1.617 1.047 0 2.074.645 2.643 1.617a8.963 8.963 0 0 0 1.672-.693c-.285-1.088-.059-1.969.683-2.711.741-.74 1.622-1.166 2.711-.883a8.811 8.811 0 0 0 .692-1.672c-.973-.569-1.619-1.395-1.619-2.442zM10 13.652a3.652 3.652 0 1 1 0-7.306 3.654 3.654 0 0 1 0 7.306z"/></symbol><symbol id="icon-home" viewBox="0 0 20 20"><path class="path1" d="M18.672 11H17v6c0 .445-.194 1-1 1h-4v-6H8v6H4c-.806 0-1-.555-1-1v-6H1.328c-.598 0-.47-.324-.06-.748L9.292 2.22c.195-.202.451-.302.708-.312.257.01.513.109.708.312l8.023 8.031c.411.425.539.749-.059.749z"/></symbol><symbol id="icon-key" viewBox="0 0 20 20"><path class="path1" d="M17.691 4.725c-.503-2.977-3.22-4.967-6.069-4.441S6.366 3.1 6.869 6.079c.107.641.408 1.644.763 2.365l-5.175 7.723c-.191.285-.299.799-.242 1.141l.333 1.971a.612.612 0 0 0 .7.514l1.516-.281c.328-.059.744-.348.924-.639l2.047-3.311.018-.022 1.386-.256 2.39-3.879c.785.139 1.912.092 2.578-.031 2.848-.526 4.087-3.67 3.584-6.649zm-2.525 1.527c-.784 1.17-1.584.346-2.703-.475-1.119-.818-2.135-1.322-1.352-2.492s2.326-1.455 3.447-.635c1.12.819 1.391 2.432.608 3.602z"/></symbol><symbol id="icon-light-up" viewBox="0 0 20 20"><path class="path1" d="M19 9.199h-.98c-.553 0-1 .359-1 .801s.447.799 1 .799H19c.552 0 1-.357 1-.799 0-.441-.449-.801-1-.801zM10 4.5c-3.051 0-5.5 2.449-5.5 5.5s2.449 5.5 5.5 5.5c3.05 0 5.5-2.449 5.5-5.5S13.049 4.5 10 4.5zm0 9.5c-2.211 0-4-1.791-4-4 0-2.211 1.789-4 4-4a4 4 0 0 1 0 8zm-7-4c0-.441-.449-.801-1-.801H1c-.553 0-1 .359-1 .801s.447.799 1 .799h1c.551 0 1-.358 1-.799zm7-7c.441 0 .799-.447.799-1V1c0-.553-.358-1-.799-1s-.801.447-.801 1v1c0 .553.359 1 .801 1zm0 14c-.442 0-.801.447-.801 1v1c0 .553.359 1 .801 1s.799-.447.799-1v-1c0-.553-.358-1-.799-1zm7.365-13.234c.391-.391.454-.961.142-1.273s-.883-.248-1.272.143l-.7.699c-.391.391-.454.961-.142 1.273s.883.248 1.273-.143l.699-.699zM3.334 15.533l-.7.701c-.391.391-.454.959-.142 1.271s.883.25 1.272-.141l.7-.699c.391-.391.454-.961.142-1.274s-.883-.247-1.272.142zm.431-12.898c-.39-.391-.961-.455-1.273-.143s-.248.883.141 1.274l.7.699c.391.391.96.455 1.272.143s.249-.883-.141-1.273l-.699-.7zm11.769 14.031l.7.699c.391.391.96.453 1.272.143.312-.312.249-.883-.142-1.273l-.699-.699c-.391-.391-.961-.455-1.274-.143s-.248.882.143 1.273z"/></symbol><symbol id="icon-location-pin" viewBox="0 0 20 20"><path class="path1" d="M10 2.009c-2.762 0-5 2.229-5 4.99 0 4.774 5 11 5 11s5-6.227 5-11c0-2.76-2.238-4.99-5-4.99zm0 7.751a2.7 2.7 0 1 1 0-5.4 2.7 2.7 0 0 1 0 5.4z"/></symbol><symbol id="icon-magnifying-glass" viewBox="0 0 20 20"><path class="path1" d="M17.545 15.467l-3.779-3.779a6.15 6.15 0 0 0 .898-3.21c0-3.417-2.961-6.377-6.378-6.377S2.1 4.87 2.1 8.287c0 3.416 2.961 6.377 6.377 6.377a6.15 6.15 0 0 0 3.115-.844l3.799 3.801a.953.953 0 0 0 1.346 0l.943-.943c.371-.371.236-.84-.135-1.211zM4.004 8.287c0-2.366 1.917-4.283 4.282-4.283s4.474 2.107 4.474 4.474c0 2.365-1.918 4.283-4.283 4.283s-4.473-2.109-4.473-4.474z"/></symbol><symbol id="icon-mail" viewBox="0 0 20 20"><path class="path1" d="M1.574 5.286l7.5 4.029c.252.135.578.199.906.199.328 0 .654-.064.906-.199l7.5-4.029c.489-.263.951-1.286.054-1.286H1.521c-.897 0-.435 1.023.053 1.286zm17.039 2.203l-7.727 4.027c-.34.178-.578.199-.906.199s-.566-.021-.906-.199-7.133-3.739-7.688-4.028C.996 7.284 1 7.523 1 7.707V15c0 .42.566 1 1 1h16c.434 0 1-.58 1-1V7.708c0-.184.004-.423-.387-.219z"/></symbol><symbol id="icon-map" viewBox="0 0 20 20"><path class="path1" d="M19.447 3.718l-6-3a1 1 0 0 0-.895 0l-5.63 2.815-5.606-1.869A1 1 0 0 0 0 2.613v13.001c0 .379.214.725.553.894l6 3a1.006 1.006 0 0 0 .894 0l5.63-2.814 5.606 1.869a.999.999 0 0 0 1.316-.949V4.612a.996.996 0 0 0-.552-.894zM8 5.231l4-2v11.763l-4 2V5.231zM2 4l4 1.333v11.661l-4-2V4zm16 12.227l-4-1.334V3.231l4 2v10.996z"/></symbol><symbol id="icon-squared-cross" viewBox="0 0 20 20"><path class="path1" d="M16 2H4c-1.1 0-2 .9-2 2v12c0 1.1.9 2 2 2h12c1.1 0 2-.9 2-2V4c0-1.1-.9-2-2-2zm-2.939 12.789L10 11.729l-3.061 3.06-1.729-1.728L8.271 10l-3.06-3.061L6.94 5.21 10 8.271l3.059-3.061 1.729 1.729L11.729 10l3.06 3.061-1.728 1.728z"/></symbol><symbol id="icon-star-outlined" viewBox="0 0 20 20"><path class="path1" d="M18.8 8.022h-6.413L10 1.3 7.611 8.022H1.199l5.232 3.947-1.871 6.929L10 14.744l5.438 4.154-1.869-6.929L18.8 8.022zM10 12.783l-3.014 2.5 1.243-3.562-2.851-2.3 3.522.101 1.1-4.04 1.099 4.04 3.521-.101-2.851 2.3 1.243 3.562-3.012-2.5z"/></symbol><symbol id="icon-star" viewBox="0 0 20 20"><path class="path1" d="M10 1.3l2.388 6.722H18.8l-5.232 3.948 1.871 6.928L10 14.744l-5.438 4.154 1.87-6.928-5.233-3.948h6.412L10 1.3z"/></symbol><symbol id="icon-user" viewBox="0 0 20 20"><path class="path1" d="M7.725 2.146c-1.016.756-1.289 1.953-1.239 2.59.064.779.222 1.793.222 1.793s-.313.17-.313.854c.109 1.717.683.976.801 1.729.284 1.814.933 1.491.933 2.481 0 1.649-.68 2.42-2.803 3.334C3.196 15.845 1 17 1 19v1h18v-1c0-2-2.197-3.155-4.328-4.072-2.123-.914-2.801-1.684-2.801-3.334 0-.99.647-.667.932-2.481.119-.753.692-.012.803-1.729 0-.684-.314-.854-.314-.854s.158-1.014.221-1.793c.065-.817-.398-2.561-2.3-3.096-.333-.34-.558-.881.466-1.424-2.24-.105-2.761 1.067-3.954 1.929z"/></symbol><symbol id="icon-facebook" viewBox="0 0 20 20"><path class="path1" d="M17 1H3c-1.1 0-2 .9-2 2v14c0 1.101.9 2 2 2h7v-7H8V9.525h2v-2.05c0-2.164 1.212-3.684 3.766-3.684l1.803.002v2.605h-1.197c-.994 0-1.372.746-1.372 1.438v1.69h2.568L15 12h-2v7h4c1.1 0 2-.899 2-2V3c0-1.1-.9-2-2-2z"/></symbol><symbol id="icon-instagram" viewBox="0 0 20 20"><path class="path1" d="M17 1H3c-1.1 0-2 .9-2 2v14c0 1.101.9 2 2 2h14c1.1 0 2-.899 2-2V3c0-1.1-.9-2-2-2zM9.984 15.523a5.539 5.539 0 0 0 5.538-5.539c0-.338-.043-.664-.103-.984H17v7.216a.69.69 0 0 1-.693.69H3.693a.69.69 0 0 1-.693-.69V9h1.549c-.061.32-.104.646-.104.984a5.54 5.54 0 0 0 5.539 5.539zM6.523 9.984a3.461 3.461 0 0 1 3.462-3.461 3.461 3.461 0 1 1 0 6.923 3.461 3.461 0 0 1-3.462-3.462zM16.307 6h-1.615A.694.694 0 0 1 14 5.308V3.691c0-.382.31-.691.691-.691h1.615c.384 0 .694.309.694.691v1.616c0 .381-.31.693-.693.693z"/></symbol></defs></svg>